<mxfile host="app.diagrams.net" agent="Mozilla/5.0 (Windows NT 10.0; Win64; x64; rv:137.0) Gecko/20100101 Firefox/137.0" version="24.8.4">
  <diagram id="prtHgNgQTEPvFCAcTncT" name="Page-1">
    <mxGraphModel dx="1050" dy="503" grid="1" gridSize="10" guides="1" tooltips="1" connect="1" arrows="1" fold="1" page="1" pageScale="1" pageWidth="827" pageHeight="1169" math="0" shadow="0">
      <root>
        <mxCell id="0" />
        <mxCell id="1" parent="0" />
        <mxCell id="dNxyNK7c78bLwvsdeMH5-11" value="Airtel Kenya Organizational Chart" style="swimlane;html=1;startSize=20;horizontal=1;containerType=tree;glass=0;" parent="1" vertex="1">
          <mxGeometry y="80" width="830" height="420" as="geometry" />
        </mxCell>
        <mxCell id="vhOEjCvJ_zv_bu3SFHbm-2" value="Director, IT &amp;amp; Telecommunications" style="rounded=0;whiteSpace=wrap;html=1;" vertex="1" parent="dNxyNK7c78bLwvsdeMH5-11">
          <mxGeometry x="10" y="160" width="110" height="60" as="geometry" />
        </mxCell>
        <mxCell id="vhOEjCvJ_zv_bu3SFHbm-5" value="Director, Research, Development and Innovation" style="rounded=0;whiteSpace=wrap;html=1;" vertex="1" parent="dNxyNK7c78bLwvsdeMH5-11">
          <mxGeometry x="140" y="160" width="110" height="60" as="geometry" />
        </mxCell>
        <mxCell id="vhOEjCvJ_zv_bu3SFHbm-6" value="Director, Customer Service" style="rounded=0;whiteSpace=wrap;html=1;" vertex="1" parent="dNxyNK7c78bLwvsdeMH5-11">
          <mxGeometry x="270" y="160" width="120" height="60" as="geometry" />
        </mxCell>
        <mxCell id="vhOEjCvJ_zv_bu3SFHbm-7" value="Director, Sales and Marketing" style="rounded=0;whiteSpace=wrap;html=1;" vertex="1" parent="dNxyNK7c78bLwvsdeMH5-11">
          <mxGeometry x="414" y="160" width="120" height="60" as="geometry" />
        </mxCell>
        <mxCell id="vhOEjCvJ_zv_bu3SFHbm-8" value="Director, Finance" style="rounded=0;whiteSpace=wrap;html=1;" vertex="1" parent="dNxyNK7c78bLwvsdeMH5-11">
          <mxGeometry x="560" y="160" width="120" height="60" as="geometry" />
        </mxCell>
        <mxCell id="vhOEjCvJ_zv_bu3SFHbm-9" value="Director, Operations" style="rounded=0;whiteSpace=wrap;html=1;" vertex="1" parent="dNxyNK7c78bLwvsdeMH5-11">
          <mxGeometry x="700" y="160" width="120" height="60" as="geometry" />
        </mxCell>
        <mxCell id="vhOEjCvJ_zv_bu3SFHbm-10" value="" style="edgeStyle=orthogonalEdgeStyle;rounded=0;orthogonalLoop=1;jettySize=auto;html=1;" edge="1" source="vhOEjCvJ_zv_bu3SFHbm-2" target="vhOEjCvJ_zv_bu3SFHbm-11" parent="dNxyNK7c78bLwvsdeMH5-11">
          <mxGeometry relative="1" as="geometry" />
        </mxCell>
        <mxCell id="vhOEjCvJ_zv_bu3SFHbm-11" value="IT Teams (Network Engineers, Data analysts, AI Experts)" style="rounded=0;whiteSpace=wrap;html=1;" vertex="1" parent="dNxyNK7c78bLwvsdeMH5-11">
          <mxGeometry x="10" y="260" width="110" height="60" as="geometry" />
        </mxCell>
        <mxCell id="vhOEjCvJ_zv_bu3SFHbm-12" value="" style="edgeStyle=orthogonalEdgeStyle;rounded=0;orthogonalLoop=1;jettySize=auto;html=1;" edge="1" source="vhOEjCvJ_zv_bu3SFHbm-5" target="vhOEjCvJ_zv_bu3SFHbm-13" parent="dNxyNK7c78bLwvsdeMH5-11">
          <mxGeometry relative="1" as="geometry" />
        </mxCell>
        <mxCell id="vhOEjCvJ_zv_bu3SFHbm-13" value="R&amp;amp;D Teams" style="rounded=0;whiteSpace=wrap;html=1;" vertex="1" parent="dNxyNK7c78bLwvsdeMH5-11">
          <mxGeometry x="140" y="260" width="110" height="60" as="geometry" />
        </mxCell>
        <mxCell id="vhOEjCvJ_zv_bu3SFHbm-14" value="" style="edgeStyle=orthogonalEdgeStyle;rounded=0;orthogonalLoop=1;jettySize=auto;html=1;" edge="1" source="vhOEjCvJ_zv_bu3SFHbm-6" target="vhOEjCvJ_zv_bu3SFHbm-15" parent="dNxyNK7c78bLwvsdeMH5-11">
          <mxGeometry relative="1" as="geometry" />
        </mxCell>
        <mxCell id="vhOEjCvJ_zv_bu3SFHbm-15" value="Customer service Teams (front office, call centre)" style="rounded=0;whiteSpace=wrap;html=1;" vertex="1" parent="dNxyNK7c78bLwvsdeMH5-11">
          <mxGeometry x="270" y="260" width="120" height="60" as="geometry" />
        </mxCell>
        <mxCell id="vhOEjCvJ_zv_bu3SFHbm-16" value="" style="edgeStyle=orthogonalEdgeStyle;rounded=0;orthogonalLoop=1;jettySize=auto;html=1;" edge="1" source="vhOEjCvJ_zv_bu3SFHbm-7" target="vhOEjCvJ_zv_bu3SFHbm-17" parent="dNxyNK7c78bLwvsdeMH5-11">
          <mxGeometry relative="1" as="geometry" />
        </mxCell>
        <mxCell id="vhOEjCvJ_zv_bu3SFHbm-17" value="Sales and Marketing teams (sales campaigns, user education)" style="rounded=0;whiteSpace=wrap;html=1;" vertex="1" parent="dNxyNK7c78bLwvsdeMH5-11">
          <mxGeometry x="414" y="260" width="120" height="60" as="geometry" />
        </mxCell>
        <mxCell id="vhOEjCvJ_zv_bu3SFHbm-18" value="" style="edgeStyle=orthogonalEdgeStyle;rounded=0;orthogonalLoop=1;jettySize=auto;html=1;" edge="1" source="vhOEjCvJ_zv_bu3SFHbm-8" target="vhOEjCvJ_zv_bu3SFHbm-19" parent="dNxyNK7c78bLwvsdeMH5-11">
          <mxGeometry relative="1" as="geometry" />
        </mxCell>
        <mxCell id="vhOEjCvJ_zv_bu3SFHbm-19" value="Finance and Accounts Teams" style="rounded=0;whiteSpace=wrap;html=1;" vertex="1" parent="dNxyNK7c78bLwvsdeMH5-11">
          <mxGeometry x="560" y="260" width="120" height="60" as="geometry" />
        </mxCell>
        <mxCell id="vhOEjCvJ_zv_bu3SFHbm-20" value="" style="edgeStyle=orthogonalEdgeStyle;rounded=0;orthogonalLoop=1;jettySize=auto;html=1;" edge="1" source="vhOEjCvJ_zv_bu3SFHbm-9" target="vhOEjCvJ_zv_bu3SFHbm-21" parent="dNxyNK7c78bLwvsdeMH5-11">
          <mxGeometry relative="1" as="geometry" />
        </mxCell>
        <mxCell id="vhOEjCvJ_zv_bu3SFHbm-21" value="Supply chain Management, Human Rsource" style="rounded=0;whiteSpace=wrap;html=1;" vertex="1" parent="dNxyNK7c78bLwvsdeMH5-11">
          <mxGeometry x="700" y="260" width="120" height="60" as="geometry" />
        </mxCell>
        <mxCell id="vhOEjCvJ_zv_bu3SFHbm-1" value="Chief Executive Officer" style="rounded=0;whiteSpace=wrap;html=1;" vertex="1" parent="1">
          <mxGeometry x="350" y="113" width="120" height="60" as="geometry" />
        </mxCell>
        <mxCell id="vhOEjCvJ_zv_bu3SFHbm-22" value="" style="endArrow=none;html=1;rounded=0;" edge="1" parent="1">
          <mxGeometry width="50" height="50" relative="1" as="geometry">
            <mxPoint x="60" y="200" as="sourcePoint" />
            <mxPoint x="760" y="200" as="targetPoint" />
          </mxGeometry>
        </mxCell>
        <mxCell id="vhOEjCvJ_zv_bu3SFHbm-23" value="" style="endArrow=classic;html=1;rounded=0;entryX=0.5;entryY=0;entryDx=0;entryDy=0;" edge="1" parent="1" target="vhOEjCvJ_zv_bu3SFHbm-6">
          <mxGeometry width="50" height="50" relative="1" as="geometry">
            <mxPoint x="330" y="200" as="sourcePoint" />
            <mxPoint x="420" y="240" as="targetPoint" />
          </mxGeometry>
        </mxCell>
        <mxCell id="vhOEjCvJ_zv_bu3SFHbm-24" value="" style="endArrow=classic;html=1;rounded=0;entryX=0.5;entryY=0;entryDx=0;entryDy=0;" edge="1" parent="1">
          <mxGeometry width="50" height="50" relative="1" as="geometry">
            <mxPoint x="61" y="199" as="sourcePoint" />
            <mxPoint x="61" y="239" as="targetPoint" />
          </mxGeometry>
        </mxCell>
        <mxCell id="vhOEjCvJ_zv_bu3SFHbm-25" value="" style="endArrow=classic;html=1;rounded=0;entryX=0.5;entryY=0;entryDx=0;entryDy=0;" edge="1" parent="1">
          <mxGeometry width="50" height="50" relative="1" as="geometry">
            <mxPoint x="194" y="199" as="sourcePoint" />
            <mxPoint x="194" y="239" as="targetPoint" />
          </mxGeometry>
        </mxCell>
        <mxCell id="vhOEjCvJ_zv_bu3SFHbm-26" value="" style="endArrow=classic;html=1;rounded=0;entryX=0.5;entryY=0;entryDx=0;entryDy=0;" edge="1" parent="1">
          <mxGeometry width="50" height="50" relative="1" as="geometry">
            <mxPoint x="474" y="200" as="sourcePoint" />
            <mxPoint x="474" y="240" as="targetPoint" />
          </mxGeometry>
        </mxCell>
        <mxCell id="vhOEjCvJ_zv_bu3SFHbm-27" value="" style="endArrow=classic;html=1;rounded=0;entryX=0.5;entryY=0;entryDx=0;entryDy=0;" edge="1" parent="1">
          <mxGeometry width="50" height="50" relative="1" as="geometry">
            <mxPoint x="621" y="199" as="sourcePoint" />
            <mxPoint x="621" y="239" as="targetPoint" />
          </mxGeometry>
        </mxCell>
        <mxCell id="vhOEjCvJ_zv_bu3SFHbm-28" value="" style="endArrow=classic;html=1;rounded=0;entryX=0.5;entryY=0;entryDx=0;entryDy=0;" edge="1" parent="1">
          <mxGeometry width="50" height="50" relative="1" as="geometry">
            <mxPoint x="760" y="199" as="sourcePoint" />
            <mxPoint x="760" y="239" as="targetPoint" />
          </mxGeometry>
        </mxCell>
        <mxCell id="vhOEjCvJ_zv_bu3SFHbm-29" value="" style="endArrow=none;html=1;rounded=0;entryX=0.5;entryY=1;entryDx=0;entryDy=0;" edge="1" parent="1" target="vhOEjCvJ_zv_bu3SFHbm-1">
          <mxGeometry width="50" height="50" relative="1" as="geometry">
            <mxPoint x="410" y="200" as="sourcePoint" />
            <mxPoint x="420" y="240" as="targetPoint" />
          </mxGeometry>
        </mxCell>
      </root>
    </mxGraphModel>
  </diagram>
</mxfile>
